<?xml version="1.0" encoding="UTF-8"?>
<svg xmlns="http://www.w3.org/2000/svg" width="1000" height="1400" viewBox="0 0 1000 1400"><defs><pattern id="pat0" width="70" height="70" patternUnits="userSpaceOnUse"><rect width="70.0" height="70.0" fill="#9a8c98"/><line x1="0" y1="35.0" x2="70" y2="35.0" stroke="#22223b" stroke-width="5.6"/><line x1="35.0" y1="0" x2="35.0" y2="70" stroke="#22223b" stroke-width="2.0" opacity="0.6"/></pattern><pattern id="pat1" width="70" height="70" patternUnits="userSpaceOnUse"><rect width="70.0" height="70.0" fill="#c9ada7"/><path d="M17.5,17.5 h35.0 v35.0 h-35.0 Z" fill="#4a4e69"/><path d="M7.0,35.0 h56.0 M35.0,7.0 v56.0" stroke="#4a4e69" stroke-width="2.1"/></pattern><pattern id="pat2" width="70" height="70" patternUnits="userSpaceOnUse"><rect width="70.0" height="70.0" fill="#f2e9e4"/><path d="M0,70.0 L35.0,0 L70.0,70.0 Z" fill="#9a8c98"/><path d="M35.0,70.0 L70.0,0 L70.0,70.0" fill="none" stroke="#9a8c98" stroke-width="2.1"/></pattern><pattern id="pat3" width="70" height="70" patternUnits="userSpaceOnUse"><rect width="70.0" height="70.0" fill="#22223b"/><circle cx="17.50" cy="70.00" r="29.4" fill="none" stroke="#c9ada7" stroke-width="3.5"/><circle cx="52.50" cy="70.00" r="29.4" fill="none" stroke="#c9ada7" stroke-width="3.5"/></pattern></defs><rect width="1000" height="1400" fill="#ffffff"/><rect x="50" y="40" width="900" height="300" rx="16" fill="url(#pat0)" stroke="#dddddd" stroke-width="2"/><rect x="50" y="370" width="900" height="300" rx="16" fill="url(#pat1)" stroke="#dddddd" stroke-width="2"/><rect x="50" y="700" width="900" height="300" rx="16" fill="url(#pat2)" stroke="#dddddd" stroke-width="2"/><rect x="50" y="1030" width="900" height="300" rx="16" fill="url(#pat3)" stroke="#dddddd" stroke-width="2"/><!-- VectorForge Daily | machine-generated asset | (c) operator, all rights reserved --></svg>