<?xml version="1.0" encoding="UTF-8"?>
<svg xmlns="http://www.w3.org/2000/svg" width="1000" height="1000" viewBox="0 0 1000 1000"><rect width="1000" height="1000" fill="#ffffff"/><g transform="rotate(0.00 500 500)"><path d="M 500.0 500.0 Q 489.8 446.3 500.0 410.5 Q 509.9 448.1 500.0 500.0 Z" fill="none" stroke="#1d3557" stroke-width="1.5"/><path d="M 500.0 500.0 Q 498.5 482.6 500.0 465.1 Q 501.5 482.6 500.0 500.0 Z" fill="none" stroke="#e63946" stroke-width="1.4"/><circle cx="500.0" cy="437.3" r="3.3" fill="#e63946"/><circle cx="500.0" cy="455.2" r="4.8" fill="#e63946"/><circle cx="500.0" cy="423.9" r="5.0" fill="#e63946"/><line x1="500.0" y1="500.0" x2="488.0" y2="404.8" stroke="#e63946" stroke-width="0.8" opacity="0.7"/></g><g transform="rotate(22.50 500 500)"><path d="M 500.0 500.0 Q 489.8 446.3 500.0 410.5 Q 509.9 448.1 500.0 500.0 Z" fill="none" stroke="#1d3557" stroke-width="1.5"/><path d="M 500.0 500.0 Q 498.5 482.6 500.0 465.1 Q 501.5 482.6 500.0 500.0 Z" fill="none" stroke="#e63946" stroke-width="1.4"/><circle cx="500.0" cy="437.3" r="3.3" fill="#e63946"/><circle cx="500.0" cy="455.2" r="4.8" fill="#e63946"/><circle cx="500.0" cy="423.9" r="5.0" fill="#e63946"/><line x1="500.0" y1="500.0" x2="488.0" y2="404.8" stroke="#e63946" stroke-width="0.8" opacity="0.7"/></g><g transform="rotate(45.00 500 500)"><path d="M 500.0 500.0 Q 489.8 446.3 500.0 410.5 Q 509.9 448.1 500.0 500.0 Z" fill="none" stroke="#1d3557" stroke-width="1.5"/><path d="M 500.0 500.0 Q 498.5 482.6 500.0 465.1 Q 501.5 482.6 500.0 500.0 Z" fill="none" stroke="#e63946" stroke-width="1.4"/><circle cx="500.0" cy="437.3" r="3.3" fill="#e63946"/><circle cx="500.0" cy="455.2" r="4.8" fill="#e63946"/><circle cx="500.0" cy="423.9" r="5.0" fill="#e63946"/><line x1="500.0" y1="500.0" x2="488.0" y2="404.8" stroke="#e63946" stroke-width="0.8" opacity="0.7"/></g><g transform="rotate(67.50 500 500)"><path d="M 500.0 500.0 Q 489.8 446.3 500.0 410.5 Q 509.9 448.1 500.0 500.0 Z" fill="none" stroke="#1d3557" stroke-width="1.5"/><path d="M 500.0 500.0 Q 498.5 482.6 500.0 465.1 Q 501.5 482.6 500.0 500.0 Z" fill="none" stroke="#e63946" stroke-width="1.4"/><circle cx="500.0" cy="437.3" r="3.3" fill="#e63946"/><circle cx="500.0" cy="455.2" r="4.8" fill="#e63946"/><circle cx="500.0" cy="423.9" r="5.0" fill="#e63946"/><line x1="500.0" y1="500.0" x2="488.0" y2="404.8" stroke="#e63946" stroke-width="0.8" opacity="0.7"/></g><g transform="rotate(90.00 500 500)"><path d="M 500.0 500.0 Q 489.8 446.3 500.0 410.5 Q 509.9 448.1 500.0 500.0 Z" fill="none" stroke="#1d3557" stroke-width="1.5"/><path d="M 500.0 500.0 Q 498.5 482.6 500.0 465.1 Q 501.5 482.6 500.0 500.0 Z" fill="none" stroke="#e63946" stroke-width="1.4"/><circle cx="500.0" cy="437.3" r="3.3" fill="#e63946"/><circle cx="500.0" cy="455.2" r="4.8" fill="#e63946"/><circle cx="500.0" cy="423.9" r="5.0" fill="#e63946"/><line x1="500.0" y1="500.0" x2="488.0" y2="404.8" stroke="#e63946" stroke-width="0.8" opacity="0.7"/></g><g transform="rotate(112.50 500 500)"><path d="M 500.0 500.0 Q 489.8 446.3 500.0 410.5 Q 509.9 448.1 500.0 500.0 Z" fill="none" stroke="#1d3557" stroke-width="1.5"/><path d="M 500.0 500.0 Q 498.5 482.6 500.0 465.1 Q 501.5 482.6 500.0 500.0 Z" fill="none" stroke="#e63946" stroke-width="1.4"/><circle cx="500.0" cy="437.3" r="3.3" fill="#e63946"/><circle cx="500.0" cy="455.2" r="4.8" fill="#e63946"/><circle cx="500.0" cy="423.9" r="5.0" fill="#e63946"/><line x1="500.0" y1="500.0" x2="488.0" y2="404.8" stroke="#e63946" stroke-width="0.8" opacity="0.7"/></g><g transform="rotate(135.00 500 500)"><path d="M 500.0 500.0 Q 489.8 446.3 500.0 410.5 Q 509.9 448.1 500.0 500.0 Z" fill="none" stroke="#1d3557" stroke-width="1.5"/><path d="M 500.0 500.0 Q 498.5 482.6 500.0 465.1 Q 501.5 482.6 500.0 500.0 Z" fill="none" stroke="#e63946" stroke-width="1.4"/><circle cx="500.0" cy="437.3" r="3.3" fill="#e63946"/><circle cx="500.0" cy="455.2" r="4.8" fill="#e63946"/><circle cx="500.0" cy="423.9" r="5.0" fill="#e63946"/><line x1="500.0" y1="500.0" x2="488.0" y2="404.8" stroke="#e63946" stroke-width="0.8" opacity="0.7"/></g><g transform="rotate(157.50 500 500)"><path d="M 500.0 500.0 Q 489.8 446.3 500.0 410.5 Q 509.9 448.1 500.0 500.0 Z" fill="none" stroke="#1d3557" stroke-width="1.5"/><path d="M 500.0 500.0 Q 498.5 482.6 500.0 465.1 Q 501.5 482.6 500.0 500.0 Z" fill="none" stroke="#e63946" stroke-width="1.4"/><circle cx="500.0" cy="437.3" r="3.3" fill="#e63946"/><circle cx="500.0" cy="455.2" r="4.8" fill="#e63946"/><circle cx="500.0" cy="423.9" r="5.0" fill="#e63946"/><line x1="500.0" y1="500.0" x2="488.0" y2="404.8" stroke="#e63946" stroke-width="0.8" opacity="0.7"/></g><g transform="rotate(180.00 500 500)"><path d="M 500.0 500.0 Q 489.8 446.3 500.0 410.5 Q 509.9 448.1 500.0 500.0 Z" fill="none" stroke="#1d3557" stroke-width="1.5"/><path d="M 500.0 500.0 Q 498.5 482.6 500.0 465.1 Q 501.5 482.6 500.0 500.0 Z" fill="none" stroke="#e63946" stroke-width="1.4"/><circle cx="500.0" cy="437.3" r="3.3" fill="#e63946"/><circle cx="500.0" cy="455.2" r="4.8" fill="#e63946"/><circle cx="500.0" cy="423.9" r="5.0" fill="#e63946"/><line x1="500.0" y1="500.0" x2="488.0" y2="404.8" stroke="#e63946" stroke-width="0.8" opacity="0.7"/></g><g transform="rotate(202.50 500 500)"><path d="M 500.0 500.0 Q 489.8 446.3 500.0 410.5 Q 509.9 448.1 500.0 500.0 Z" fill="none" stroke="#1d3557" stroke-width="1.5"/><path d="M 500.0 500.0 Q 498.5 482.6 500.0 465.1 Q 501.5 482.6 500.0 500.0 Z" fill="none" stroke="#e63946" stroke-width="1.4"/><circle cx="500.0" cy="437.3" r="3.3" fill="#e63946"/><circle cx="500.0" cy="455.2" r="4.8" fill="#e63946"/><circle cx="500.0" cy="423.9" r="5.0" fill="#e63946"/><line x1="500.0" y1="500.0" x2="488.0" y2="404.8" stroke="#e63946" stroke-width="0.8" opacity="0.7"/></g><g transform="rotate(225.00 500 500)"><path d="M 500.0 500.0 Q 489.8 446.3 500.0 410.5 Q 509.9 448.1 500.0 500.0 Z" fill="none" stroke="#1d3557" stroke-width="1.5"/><path d="M 500.0 500.0 Q 498.5 482.6 500.0 465.1 Q 501.5 482.6 500.0 500.0 Z" fill="none" stroke="#e63946" stroke-width="1.4"/><circle cx="500.0" cy="437.3" r="3.3" fill="#e63946"/><circle cx="500.0" cy="455.2" r="4.8" fill="#e63946"/><circle cx="500.0" cy="423.9" r="5.0" fill="#e63946"/><line x1="500.0" y1="500.0" x2="488.0" y2="404.8" stroke="#e63946" stroke-width="0.8" opacity="0.7"/></g><g transform="rotate(247.50 500 500)"><path d="M 500.0 500.0 Q 489.8 446.3 500.0 410.5 Q 509.9 448.1 500.0 500.0 Z" fill="none" stroke="#1d3557" stroke-width="1.5"/><path d="M 500.0 500.0 Q 498.5 482.6 500.0 465.1 Q 501.5 482.6 500.0 500.0 Z" fill="none" stroke="#e63946" stroke-width="1.4"/><circle cx="500.0" cy="437.3" r="3.3" fill="#e63946"/><circle cx="500.0" cy="455.2" r="4.8" fill="#e63946"/><circle cx="500.0" cy="423.9" r="5.0" fill="#e63946"/><line x1="500.0" y1="500.0" x2="488.0" y2="404.8" stroke="#e63946" stroke-width="0.8" opacity="0.7"/></g><g transform="rotate(270.00 500 500)"><path d="M 500.0 500.0 Q 489.8 446.3 500.0 410.5 Q 509.9 448.1 500.0 500.0 Z" fill="none" stroke="#1d3557" stroke-width="1.5"/><path d="M 500.0 500.0 Q 498.5 482.6 500.0 465.1 Q 501.5 482.6 500.0 500.0 Z" fill="none" stroke="#e63946" stroke-width="1.4"/><circle cx="500.0" cy="437.3" r="3.3" fill="#e63946"/><circle cx="500.0" cy="455.2" r="4.8" fill="#e63946"/><circle cx="500.0" cy="423.9" r="5.0" fill="#e63946"/><line x1="500.0" y1="500.0" x2="488.0" y2="404.8" stroke="#e63946" stroke-width="0.8" opacity="0.7"/></g><g transform="rotate(292.50 500 500)"><path d="M 500.0 500.0 Q 489.8 446.3 500.0 410.5 Q 509.9 448.1 500.0 500.0 Z" fill="none" stroke="#1d3557" stroke-width="1.5"/><path d="M 500.0 500.0 Q 498.5 482.6 500.0 465.1 Q 501.5 482.6 500.0 500.0 Z" fill="none" stroke="#e63946" stroke-width="1.4"/><circle cx="500.0" cy="437.3" r="3.3" fill="#e63946"/><circle cx="500.0" cy="455.2" r="4.8" fill="#e63946"/><circle cx="500.0" cy="423.9" r="5.0" fill="#e63946"/><line x1="500.0" y1="500.0" x2="488.0" y2="404.8" stroke="#e63946" stroke-width="0.8" opacity="0.7"/></g><g transform="rotate(315.00 500 500)"><path d="M 500.0 500.0 Q 489.8 446.3 500.0 410.5 Q 509.9 448.1 500.0 500.0 Z" fill="none" stroke="#1d3557" stroke-width="1.5"/><path d="M 500.0 500.0 Q 498.5 482.6 500.0 465.1 Q 501.5 482.6 500.0 500.0 Z" fill="none" stroke="#e63946" stroke-width="1.4"/><circle cx="500.0" cy="437.3" r="3.3" fill="#e63946"/><circle cx="500.0" cy="455.2" r="4.8" fill="#e63946"/><circle cx="500.0" cy="423.9" r="5.0" fill="#e63946"/><line x1="500.0" y1="500.0" x2="488.0" y2="404.8" stroke="#e63946" stroke-width="0.8" opacity="0.7"/></g><g transform="rotate(337.50 500 500)"><path d="M 500.0 500.0 Q 489.8 446.3 500.0 410.5 Q 509.9 448.1 500.0 500.0 Z" fill="none" stroke="#1d3557" stroke-width="1.5"/><path d="M 500.0 500.0 Q 498.5 482.6 500.0 465.1 Q 501.5 482.6 500.0 500.0 Z" fill="none" stroke="#e63946" stroke-width="1.4"/><circle cx="500.0" cy="437.3" r="3.3" fill="#e63946"/><circle cx="500.0" cy="455.2" r="4.8" fill="#e63946"/><circle cx="500.0" cy="423.9" r="5.0" fill="#e63946"/><line x1="500.0" y1="500.0" x2="488.0" y2="404.8" stroke="#e63946" stroke-width="0.8" opacity="0.7"/></g><g transform="rotate(0.00 500 500)"><path d="M 488.6 418.0 Q 473.1 371.8 500.0 321.5 Q 531.8 348.4 511.4 418.0 Z" fill="none" stroke="#1d3557" stroke-width="2.0"/><path d="M 494.8 417.4 Q 490.9 397.0 500.0 376.0 Q 509.1 397.0 505.2 417.4 Z" fill="none" stroke="#457b9d" stroke-width="1.4"/><circle cx="500.0" cy="388.5" r="3.0" fill="#457b9d"/><circle cx="500.0" cy="369.4" r="2.8" fill="#457b9d"/><circle cx="500.0" cy="335.9" r="3.3" fill="#457b9d"/><line x1="488.6" y1="418.0" x2="473.6" y2="309.8" stroke="#457b9d" stroke-width="0.8" opacity="0.7"/></g><g transform="rotate(22.50 500 500)"><path d="M 488.6 418.0 Q 473.1 371.8 500.0 321.5 Q 531.8 348.4 511.4 418.0 Z" fill="none" stroke="#1d3557" stroke-width="2.0"/><path d="M 494.8 417.4 Q 490.9 397.0 500.0 376.0 Q 509.1 397.0 505.2 417.4 Z" fill="none" stroke="#457b9d" stroke-width="1.4"/><circle cx="500.0" cy="388.5" r="3.0" fill="#457b9d"/><circle cx="500.0" cy="369.4" r="2.8" fill="#457b9d"/><circle cx="500.0" cy="335.9" r="3.3" fill="#457b9d"/><line x1="488.6" y1="418.0" x2="473.6" y2="309.8" stroke="#457b9d" stroke-width="0.8" opacity="0.7"/></g><g transform="rotate(45.00 500 500)"><path d="M 488.6 418.0 Q 473.1 371.8 500.0 321.5 Q 531.8 348.4 511.4 418.0 Z" fill="none" stroke="#1d3557" stroke-width="2.0"/><path d="M 494.8 417.4 Q 490.9 397.0 500.0 376.0 Q 509.1 397.0 505.2 417.4 Z" fill="none" stroke="#457b9d" stroke-width="1.4"/><circle cx="500.0" cy="388.5" r="3.0" fill="#457b9d"/><circle cx="500.0" cy="369.4" r="2.8" fill="#457b9d"/><circle cx="500.0" cy="335.9" r="3.3" fill="#457b9d"/><line x1="488.6" y1="418.0" x2="473.6" y2="309.8" stroke="#457b9d" stroke-width="0.8" opacity="0.7"/></g><g transform="rotate(67.50 500 500)"><path d="M 488.6 418.0 Q 473.1 371.8 500.0 321.5 Q 531.8 348.4 511.4 418.0 Z" fill="none" stroke="#1d3557" stroke-width="2.0"/><path d="M 494.8 417.4 Q 490.9 397.0 500.0 376.0 Q 509.1 397.0 505.2 417.4 Z" fill="none" stroke="#457b9d" stroke-width="1.4"/><circle cx="500.0" cy="388.5" r="3.0" fill="#457b9d"/><circle cx="500.0" cy="369.4" r="2.8" fill="#457b9d"/><circle cx="500.0" cy="335.9" r="3.3" fill="#457b9d"/><line x1="488.6" y1="418.0" x2="473.6" y2="309.8" stroke="#457b9d" stroke-width="0.8" opacity="0.7"/></g><g transform="rotate(90.00 500 500)"><path d="M 488.6 418.0 Q 473.1 371.8 500.0 321.5 Q 531.8 348.4 511.4 418.0 Z" fill="none" stroke="#1d3557" stroke-width="2.0"/><path d="M 494.8 417.4 Q 490.9 397.0 500.0 376.0 Q 509.1 397.0 505.2 417.4 Z" fill="none" stroke="#457b9d" stroke-width="1.4"/><circle cx="500.0" cy="388.5" r="3.0" fill="#457b9d"/><circle cx="500.0" cy="369.4" r="2.8" fill="#457b9d"/><circle cx="500.0" cy="335.9" r="3.3" fill="#457b9d"/><line x1="488.6" y1="418.0" x2="473.6" y2="309.8" stroke="#457b9d" stroke-width="0.8" opacity="0.7"/></g><g transform="rotate(112.50 500 500)"><path d="M 488.6 418.0 Q 473.1 371.8 500.0 321.5 Q 531.8 348.4 511.4 418.0 Z" fill="none" stroke="#1d3557" stroke-width="2.0"/><path d="M 494.8 417.4 Q 490.9 397.0 500.0 376.0 Q 509.1 397.0 505.2 417.4 Z" fill="none" stroke="#457b9d" stroke-width="1.4"/><circle cx="500.0" cy="388.5" r="3.0" fill="#457b9d"/><circle cx="500.0" cy="369.4" r="2.8" fill="#457b9d"/><circle cx="500.0" cy="335.9" r="3.3" fill="#457b9d"/><line x1="488.6" y1="418.0" x2="473.6" y2="309.8" stroke="#457b9d" stroke-width="0.8" opacity="0.7"/></g><g transform="rotate(135.00 500 500)"><path d="M 488.6 418.0 Q 473.1 371.8 500.0 321.5 Q 531.8 348.4 511.4 418.0 Z" fill="none" stroke="#1d3557" stroke-width="2.0"/><path d="M 494.8 417.4 Q 490.9 397.0 500.0 376.0 Q 509.1 397.0 505.2 417.4 Z" fill="none" stroke="#457b9d" stroke-width="1.4"/><circle cx="500.0" cy="388.5" r="3.0" fill="#457b9d"/><circle cx="500.0" cy="369.4" r="2.8" fill="#457b9d"/><circle cx="500.0" cy="335.9" r="3.3" fill="#457b9d"/><line x1="488.6" y1="418.0" x2="473.6" y2="309.8" stroke="#457b9d" stroke-width="0.8" opacity="0.7"/></g><g transform="rotate(157.50 500 500)"><path d="M 488.6 418.0 Q 473.1 371.8 500.0 321.5 Q 531.8 348.4 511.4 418.0 Z" fill="none" stroke="#1d3557" stroke-width="2.0"/><path d="M 494.8 417.4 Q 490.9 397.0 500.0 376.0 Q 509.1 397.0 505.2 417.4 Z" fill="none" stroke="#457b9d" stroke-width="1.4"/><circle cx="500.0" cy="388.5" r="3.0" fill="#457b9d"/><circle cx="500.0" cy="369.4" r="2.8" fill="#457b9d"/><circle cx="500.0" cy="335.9" r="3.3" fill="#457b9d"/><line x1="488.6" y1="418.0" x2="473.6" y2="309.8" stroke="#457b9d" stroke-width="0.8" opacity="0.7"/></g><g transform="rotate(180.00 500 500)"><path d="M 488.6 418.0 Q 473.1 371.8 500.0 321.5 Q 531.8 348.4 511.4 418.0 Z" fill="none" stroke="#1d3557" stroke-width="2.0"/><path d="M 494.8 417.4 Q 490.9 397.0 500.0 376.0 Q 509.1 397.0 505.2 417.4 Z" fill="none" stroke="#457b9d" stroke-width="1.4"/><circle cx="500.0" cy="388.5" r="3.0" fill="#457b9d"/><circle cx="500.0" cy="369.4" r="2.8" fill="#457b9d"/><circle cx="500.0" cy="335.9" r="3.3" fill="#457b9d"/><line x1="488.6" y1="418.0" x2="473.6" y2="309.8" stroke="#457b9d" stroke-width="0.8" opacity="0.7"/></g><g transform="rotate(202.50 500 500)"><path d="M 488.6 418.0 Q 473.1 371.8 500.0 321.5 Q 531.8 348.4 511.4 418.0 Z" fill="none" stroke="#1d3557" stroke-width="2.0"/><path d="M 494.8 417.4 Q 490.9 397.0 500.0 376.0 Q 509.1 397.0 505.2 417.4 Z" fill="none" stroke="#457b9d" stroke-width="1.4"/><circle cx="500.0" cy="388.5" r="3.0" fill="#457b9d"/><circle cx="500.0" cy="369.4" r="2.8" fill="#457b9d"/><circle cx="500.0" cy="335.9" r="3.3" fill="#457b9d"/><line x1="488.6" y1="418.0" x2="473.6" y2="309.8" stroke="#457b9d" stroke-width="0.8" opacity="0.7"/></g><g transform="rotate(225.00 500 500)"><path d="M 488.6 418.0 Q 473.1 371.8 500.0 321.5 Q 531.8 348.4 511.4 418.0 Z" fill="none" stroke="#1d3557" stroke-width="2.0"/><path d="M 494.8 417.4 Q 490.9 397.0 500.0 376.0 Q 509.1 397.0 505.2 417.4 Z" fill="none" stroke="#457b9d" stroke-width="1.4"/><circle cx="500.0" cy="388.5" r="3.0" fill="#457b9d"/><circle cx="500.0" cy="369.4" r="2.8" fill="#457b9d"/><circle cx="500.0" cy="335.9" r="3.3" fill="#457b9d"/><line x1="488.6" y1="418.0" x2="473.6" y2="309.8" stroke="#457b9d" stroke-width="0.8" opacity="0.7"/></g><g transform="rotate(247.50 500 500)"><path d="M 488.6 418.0 Q 473.1 371.8 500.0 321.5 Q 531.8 348.4 511.4 418.0 Z" fill="none" stroke="#1d3557" stroke-width="2.0"/><path d="M 494.8 417.4 Q 490.9 397.0 500.0 376.0 Q 509.1 397.0 505.2 417.4 Z" fill="none" stroke="#457b9d" stroke-width="1.4"/><circle cx="500.0" cy="388.5" r="3.0" fill="#457b9d"/><circle cx="500.0" cy="369.4" r="2.8" fill="#457b9d"/><circle cx="500.0" cy="335.9" r="3.3" fill="#457b9d"/><line x1="488.6" y1="418.0" x2="473.6" y2="309.8" stroke="#457b9d" stroke-width="0.8" opacity="0.7"/></g><g transform="rotate(270.00 500 500)"><path d="M 488.6 418.0 Q 473.1 371.8 500.0 321.5 Q 531.8 348.4 511.4 418.0 Z" fill="none" stroke="#1d3557" stroke-width="2.0"/><path d="M 494.8 417.4 Q 490.9 397.0 500.0 376.0 Q 509.1 397.0 505.2 417.4 Z" fill="none" stroke="#457b9d" stroke-width="1.4"/><circle cx="500.0" cy="388.5" r="3.0" fill="#457b9d"/><circle cx="500.0" cy="369.4" r="2.8" fill="#457b9d"/><circle cx="500.0" cy="335.9" r="3.3" fill="#457b9d"/><line x1="488.6" y1="418.0" x2="473.6" y2="309.8" stroke="#457b9d" stroke-width="0.8" opacity="0.7"/></g><g transform="rotate(292.50 500 500)"><path d="M 488.6 418.0 Q 473.1 371.8 500.0 321.5 Q 531.8 348.4 511.4 418.0 Z" fill="none" stroke="#1d3557" stroke-width="2.0"/><path d="M 494.8 417.4 Q 490.9 397.0 500.0 376.0 Q 509.1 397.0 505.2 417.4 Z" fill="none" stroke="#457b9d" stroke-width="1.4"/><circle cx="500.0" cy="388.5" r="3.0" fill="#457b9d"/><circle cx="500.0" cy="369.4" r="2.8" fill="#457b9d"/><circle cx="500.0" cy="335.9" r="3.3" fill="#457b9d"/><line x1="488.6" y1="418.0" x2="473.6" y2="309.8" stroke="#457b9d" stroke-width="0.8" opacity="0.7"/></g><g transform="rotate(315.00 500 500)"><path d="M 488.6 418.0 Q 473.1 371.8 500.0 321.5 Q 531.8 348.4 511.4 418.0 Z" fill="none" stroke="#1d3557" stroke-width="2.0"/><path d="M 494.8 417.4 Q 490.9 397.0 500.0 376.0 Q 509.1 397.0 505.2 417.4 Z" fill="none" stroke="#457b9d" stroke-width="1.4"/><circle cx="500.0" cy="388.5" r="3.0" fill="#457b9d"/><circle cx="500.0" cy="369.4" r="2.8" fill="#457b9d"/><circle cx="500.0" cy="335.9" r="3.3" fill="#457b9d"/><line x1="488.6" y1="418.0" x2="473.6" y2="309.8" stroke="#457b9d" stroke-width="0.8" opacity="0.7"/></g><g transform="rotate(337.50 500 500)"><path d="M 488.6 418.0 Q 473.1 371.8 500.0 321.5 Q 531.8 348.4 511.4 418.0 Z" fill="none" stroke="#1d3557" stroke-width="2.0"/><path d="M 494.8 417.4 Q 490.9 397.0 500.0 376.0 Q 509.1 397.0 505.2 417.4 Z" fill="none" stroke="#457b9d" stroke-width="1.4"/><circle cx="500.0" cy="388.5" r="3.0" fill="#457b9d"/><circle cx="500.0" cy="369.4" r="2.8" fill="#457b9d"/><circle cx="500.0" cy="335.9" r="3.3" fill="#457b9d"/><line x1="488.6" y1="418.0" x2="473.6" y2="309.8" stroke="#457b9d" stroke-width="0.8" opacity="0.7"/></g><g transform="rotate(0.00 500 500)"><path d="M 481.8 353.8 Q 452.3 246.4 500.0 225.0 Q 536.0 308.6 518.2 353.8 Z" fill="none" stroke="#1d3557" stroke-width="2.0"/><path d="M 490.6 352.9 Q 484.8 330.1 500.0 306.3 Q 515.2 330.1 509.4 352.9 Z" fill="none" stroke="#e63946" stroke-width="1.4"/><circle cx="500.0" cy="263.3" r="3.0" fill="#e63946"/><circle cx="500.0" cy="288.8" r="4.4" fill="#e63946"/><line x1="481.8" y1="353.8" x2="464.4" y2="214.2" stroke="#e63946" stroke-width="0.8" opacity="0.7"/></g><g transform="rotate(22.50 500 500)"><path d="M 481.8 353.8 Q 452.3 246.4 500.0 225.0 Q 536.0 308.6 518.2 353.8 Z" fill="none" stroke="#1d3557" stroke-width="2.0"/><path d="M 490.6 352.9 Q 484.8 330.1 500.0 306.3 Q 515.2 330.1 509.4 352.9 Z" fill="none" stroke="#e63946" stroke-width="1.4"/><circle cx="500.0" cy="263.3" r="3.0" fill="#e63946"/><circle cx="500.0" cy="288.8" r="4.4" fill="#e63946"/><line x1="481.8" y1="353.8" x2="464.4" y2="214.2" stroke="#e63946" stroke-width="0.8" opacity="0.7"/></g><g transform="rotate(45.00 500 500)"><path d="M 481.8 353.8 Q 452.3 246.4 500.0 225.0 Q 536.0 308.6 518.2 353.8 Z" fill="none" stroke="#1d3557" stroke-width="2.0"/><path d="M 490.6 352.9 Q 484.8 330.1 500.0 306.3 Q 515.2 330.1 509.4 352.9 Z" fill="none" stroke="#e63946" stroke-width="1.4"/><circle cx="500.0" cy="263.3" r="3.0" fill="#e63946"/><circle cx="500.0" cy="288.8" r="4.4" fill="#e63946"/><line x1="481.8" y1="353.8" x2="464.4" y2="214.2" stroke="#e63946" stroke-width="0.8" opacity="0.7"/></g><g transform="rotate(67.50 500 500)"><path d="M 481.8 353.8 Q 452.3 246.4 500.0 225.0 Q 536.0 308.6 518.2 353.8 Z" fill="none" stroke="#1d3557" stroke-width="2.0"/><path d="M 490.6 352.9 Q 484.8 330.1 500.0 306.3 Q 515.2 330.1 509.4 352.9 Z" fill="none" stroke="#e63946" stroke-width="1.4"/><circle cx="500.0" cy="263.3" r="3.0" fill="#e63946"/><circle cx="500.0" cy="288.8" r="4.4" fill="#e63946"/><line x1="481.8" y1="353.8" x2="464.4" y2="214.2" stroke="#e63946" stroke-width="0.8" opacity="0.7"/></g><g transform="rotate(90.00 500 500)"><path d="M 481.8 353.8 Q 452.3 246.4 500.0 225.0 Q 536.0 308.6 518.2 353.8 Z" fill="none" stroke="#1d3557" stroke-width="2.0"/><path d="M 490.6 352.9 Q 484.8 330.1 500.0 306.3 Q 515.2 330.1 509.4 352.9 Z" fill="none" stroke="#e63946" stroke-width="1.4"/><circle cx="500.0" cy="263.3" r="3.0" fill="#e63946"/><circle cx="500.0" cy="288.8" r="4.4" fill="#e63946"/><line x1="481.8" y1="353.8" x2="464.4" y2="214.2" stroke="#e63946" stroke-width="0.8" opacity="0.7"/></g><g transform="rotate(112.50 500 500)"><path d="M 481.8 353.8 Q 452.3 246.4 500.0 225.0 Q 536.0 308.6 518.2 353.8 Z" fill="none" stroke="#1d3557" stroke-width="2.0"/><path d="M 490.6 352.9 Q 484.8 330.1 500.0 306.3 Q 515.2 330.1 509.4 352.9 Z" fill="none" stroke="#e63946" stroke-width="1.4"/><circle cx="500.0" cy="263.3" r="3.0" fill="#e63946"/><circle cx="500.0" cy="288.8" r="4.4" fill="#e63946"/><line x1="481.8" y1="353.8" x2="464.4" y2="214.2" stroke="#e63946" stroke-width="0.8" opacity="0.7"/></g><g transform="rotate(135.00 500 500)"><path d="M 481.8 353.8 Q 452.3 246.4 500.0 225.0 Q 536.0 308.6 518.2 353.8 Z" fill="none" stroke="#1d3557" stroke-width="2.0"/><path d="M 490.6 352.9 Q 484.8 330.1 500.0 306.3 Q 515.2 330.1 509.4 352.9 Z" fill="none" stroke="#e63946" stroke-width="1.4"/><circle cx="500.0" cy="263.3" r="3.0" fill="#e63946"/><circle cx="500.0" cy="288.8" r="4.4" fill="#e63946"/><line x1="481.8" y1="353.8" x2="464.4" y2="214.2" stroke="#e63946" stroke-width="0.8" opacity="0.7"/></g><g transform="rotate(157.50 500 500)"><path d="M 481.8 353.8 Q 452.3 246.4 500.0 225.0 Q 536.0 308.6 518.2 353.8 Z" fill="none" stroke="#1d3557" stroke-width="2.0"/><path d="M 490.6 352.9 Q 484.8 330.1 500.0 306.3 Q 515.2 330.1 509.4 352.9 Z" fill="none" stroke="#e63946" stroke-width="1.4"/><circle cx="500.0" cy="263.3" r="3.0" fill="#e63946"/><circle cx="500.0" cy="288.8" r="4.4" fill="#e63946"/><line x1="481.8" y1="353.8" x2="464.4" y2="214.2" stroke="#e63946" stroke-width="0.8" opacity="0.7"/></g><g transform="rotate(180.00 500 500)"><path d="M 481.8 353.8 Q 452.3 246.4 500.0 225.0 Q 536.0 308.6 518.2 353.8 Z" fill="none" stroke="#1d3557" stroke-width="2.0"/><path d="M 490.6 352.9 Q 484.8 330.1 500.0 306.3 Q 515.2 330.1 509.4 352.9 Z" fill="none" stroke="#e63946" stroke-width="1.4"/><circle cx="500.0" cy="263.3" r="3.0" fill="#e63946"/><circle cx="500.0" cy="288.8" r="4.4" fill="#e63946"/><line x1="481.8" y1="353.8" x2="464.4" y2="214.2" stroke="#e63946" stroke-width="0.8" opacity="0.7"/></g><g transform="rotate(202.50 500 500)"><path d="M 481.8 353.8 Q 452.3 246.4 500.0 225.0 Q 536.0 308.6 518.2 353.8 Z" fill="none" stroke="#1d3557" stroke-width="2.0"/><path d="M 490.6 352.9 Q 484.8 330.1 500.0 306.3 Q 515.2 330.1 509.4 352.9 Z" fill="none" stroke="#e63946" stroke-width="1.4"/><circle cx="500.0" cy="263.3" r="3.0" fill="#e63946"/><circle cx="500.0" cy="288.8" r="4.4" fill="#e63946"/><line x1="481.8" y1="353.8" x2="464.4" y2="214.2" stroke="#e63946" stroke-width="0.8" opacity="0.7"/></g><g transform="rotate(225.00 500 500)"><path d="M 481.8 353.8 Q 452.3 246.4 500.0 225.0 Q 536.0 308.6 518.2 353.8 Z" fill="none" stroke="#1d3557" stroke-width="2.0"/><path d="M 490.6 352.9 Q 484.8 330.1 500.0 306.3 Q 515.2 330.1 509.4 352.9 Z" fill="none" stroke="#e63946" stroke-width="1.4"/><circle cx="500.0" cy="263.3" r="3.0" fill="#e63946"/><circle cx="500.0" cy="288.8" r="4.4" fill="#e63946"/><line x1="481.8" y1="353.8" x2="464.4" y2="214.2" stroke="#e63946" stroke-width="0.8" opacity="0.7"/></g><g transform="rotate(247.50 500 500)"><path d="M 481.8 353.8 Q 452.3 246.4 500.0 225.0 Q 536.0 308.6 518.2 353.8 Z" fill="none" stroke="#1d3557" stroke-width="2.0"/><path d="M 490.6 352.9 Q 484.8 330.1 500.0 306.3 Q 515.2 330.1 509.4 352.9 Z" fill="none" stroke="#e63946" stroke-width="1.4"/><circle cx="500.0" cy="263.3" r="3.0" fill="#e63946"/><circle cx="500.0" cy="288.8" r="4.4" fill="#e63946"/><line x1="481.8" y1="353.8" x2="464.4" y2="214.2" stroke="#e63946" stroke-width="0.8" opacity="0.7"/></g><g transform="rotate(270.00 500 500)"><path d="M 481.8 353.8 Q 452.3 246.4 500.0 225.0 Q 536.0 308.6 518.2 353.8 Z" fill="none" stroke="#1d3557" stroke-width="2.0"/><path d="M 490.6 352.9 Q 484.8 330.1 500.0 306.3 Q 515.2 330.1 509.4 352.9 Z" fill="none" stroke="#e63946" stroke-width="1.4"/><circle cx="500.0" cy="263.3" r="3.0" fill="#e63946"/><circle cx="500.0" cy="288.8" r="4.4" fill="#e63946"/><line x1="481.8" y1="353.8" x2="464.4" y2="214.2" stroke="#e63946" stroke-width="0.8" opacity="0.7"/></g><g transform="rotate(292.50 500 500)"><path d="M 481.8 353.8 Q 452.3 246.4 500.0 225.0 Q 536.0 308.6 518.2 353.8 Z" fill="none" stroke="#1d3557" stroke-width="2.0"/><path d="M 490.6 352.9 Q 484.8 330.1 500.0 306.3 Q 515.2 330.1 509.4 352.9 Z" fill="none" stroke="#e63946" stroke-width="1.4"/><circle cx="500.0" cy="263.3" r="3.0" fill="#e63946"/><circle cx="500.0" cy="288.8" r="4.4" fill="#e63946"/><line x1="481.8" y1="353.8" x2="464.4" y2="214.2" stroke="#e63946" stroke-width="0.8" opacity="0.7"/></g><g transform="rotate(315.00 500 500)"><path d="M 481.8 353.8 Q 452.3 246.4 500.0 225.0 Q 536.0 308.6 518.2 353.8 Z" fill="none" stroke="#1d3557" stroke-width="2.0"/><path d="M 490.6 352.9 Q 484.8 330.1 500.0 306.3 Q 515.2 330.1 509.4 352.9 Z" fill="none" stroke="#e63946" stroke-width="1.4"/><circle cx="500.0" cy="263.3" r="3.0" fill="#e63946"/><circle cx="500.0" cy="288.8" r="4.4" fill="#e63946"/><line x1="481.8" y1="353.8" x2="464.4" y2="214.2" stroke="#e63946" stroke-width="0.8" opacity="0.7"/></g><g transform="rotate(337.50 500 500)"><path d="M 481.8 353.8 Q 452.3 246.4 500.0 225.0 Q 536.0 308.6 518.2 353.8 Z" fill="none" stroke="#1d3557" stroke-width="2.0"/><path d="M 490.6 352.9 Q 484.8 330.1 500.0 306.3 Q 515.2 330.1 509.4 352.9 Z" fill="none" stroke="#e63946" stroke-width="1.4"/><circle cx="500.0" cy="263.3" r="3.0" fill="#e63946"/><circle cx="500.0" cy="288.8" r="4.4" fill="#e63946"/><line x1="481.8" y1="353.8" x2="464.4" y2="214.2" stroke="#e63946" stroke-width="0.8" opacity="0.7"/></g><g transform="rotate(0.00 500 500)"><path d="M 468.1 290.2 Q 438.0 231.1 500.0 158.1 Q 566.3 212.2 531.9 290.2 Z" fill="none" stroke="#1d3557" stroke-width="2.0"/><path d="M 480.9 288.7 Q 470.4 266.9 500.0 242.3 Q 529.6 266.9 519.1 288.7 Z" fill="none" stroke="#457b9d" stroke-width="1.4"/><circle cx="500.0" cy="177.5" r="2.8" fill="#457b9d"/><circle cx="500.0" cy="222.9" r="3.7" fill="#457b9d"/><circle cx="500.0" cy="248.9" r="4.6" fill="#457b9d"/><line x1="468.1" y1="290.2" x2="442.3" y2="120.4" stroke="#457b9d" stroke-width="0.8" opacity="0.7"/></g><g transform="rotate(22.50 500 500)"><path d="M 468.1 290.2 Q 438.0 231.1 500.0 158.1 Q 566.3 212.2 531.9 290.2 Z" fill="none" stroke="#1d3557" stroke-width="2.0"/><path d="M 480.9 288.7 Q 470.4 266.9 500.0 242.3 Q 529.6 266.9 519.1 288.7 Z" fill="none" stroke="#457b9d" stroke-width="1.4"/><circle cx="500.0" cy="177.5" r="2.8" fill="#457b9d"/><circle cx="500.0" cy="222.9" r="3.7" fill="#457b9d"/><circle cx="500.0" cy="248.9" r="4.6" fill="#457b9d"/><line x1="468.1" y1="290.2" x2="442.3" y2="120.4" stroke="#457b9d" stroke-width="0.8" opacity="0.7"/></g><g transform="rotate(45.00 500 500)"><path d="M 468.1 290.2 Q 438.0 231.1 500.0 158.1 Q 566.3 212.2 531.9 290.2 Z" fill="none" stroke="#1d3557" stroke-width="2.0"/><path d="M 480.9 288.7 Q 470.4 266.9 500.0 242.3 Q 529.6 266.9 519.1 288.7 Z" fill="none" stroke="#457b9d" stroke-width="1.4"/><circle cx="500.0" cy="177.5" r="2.8" fill="#457b9d"/><circle cx="500.0" cy="222.9" r="3.7" fill="#457b9d"/><circle cx="500.0" cy="248.9" r="4.6" fill="#457b9d"/><line x1="468.1" y1="290.2" x2="442.3" y2="120.4" stroke="#457b9d" stroke-width="0.8" opacity="0.7"/></g><g transform="rotate(67.50 500 500)"><path d="M 468.1 290.2 Q 438.0 231.1 500.0 158.1 Q 566.3 212.2 531.9 290.2 Z" fill="none" stroke="#1d3557" stroke-width="2.0"/><path d="M 480.9 288.7 Q 470.4 266.9 500.0 242.3 Q 529.6 266.9 519.1 288.7 Z" fill="none" stroke="#457b9d" stroke-width="1.4"/><circle cx="500.0" cy="177.5" r="2.8" fill="#457b9d"/><circle cx="500.0" cy="222.9" r="3.7" fill="#457b9d"/><circle cx="500.0" cy="248.9" r="4.6" fill="#457b9d"/><line x1="468.1" y1="290.2" x2="442.3" y2="120.4" stroke="#457b9d" stroke-width="0.8" opacity="0.7"/></g><g transform="rotate(90.00 500 500)"><path d="M 468.1 290.2 Q 438.0 231.1 500.0 158.1 Q 566.3 212.2 531.9 290.2 Z" fill="none" stroke="#1d3557" stroke-width="2.0"/><path d="M 480.9 288.7 Q 470.4 266.9 500.0 242.3 Q 529.6 266.9 519.1 288.7 Z" fill="none" stroke="#457b9d" stroke-width="1.4"/><circle cx="500.0" cy="177.5" r="2.8" fill="#457b9d"/><circle cx="500.0" cy="222.9" r="3.7" fill="#457b9d"/><circle cx="500.0" cy="248.9" r="4.6" fill="#457b9d"/><line x1="468.1" y1="290.2" x2="442.3" y2="120.4" stroke="#457b9d" stroke-width="0.8" opacity="0.7"/></g><g transform="rotate(112.50 500 500)"><path d="M 468.1 290.2 Q 438.0 231.1 500.0 158.1 Q 566.3 212.2 531.9 290.2 Z" fill="none" stroke="#1d3557" stroke-width="2.0"/><path d="M 480.9 288.7 Q 470.4 266.9 500.0 242.3 Q 529.6 266.9 519.1 288.7 Z" fill="none" stroke="#457b9d" stroke-width="1.4"/><circle cx="500.0" cy="177.5" r="2.8" fill="#457b9d"/><circle cx="500.0" cy="222.9" r="3.7" fill="#457b9d"/><circle cx="500.0" cy="248.9" r="4.6" fill="#457b9d"/><line x1="468.1" y1="290.2" x2="442.3" y2="120.4" stroke="#457b9d" stroke-width="0.8" opacity="0.7"/></g><g transform="rotate(135.00 500 500)"><path d="M 468.1 290.2 Q 438.0 231.1 500.0 158.1 Q 566.3 212.2 531.9 290.2 Z" fill="none" stroke="#1d3557" stroke-width="2.0"/><path d="M 480.9 288.7 Q 470.4 266.9 500.0 242.3 Q 529.6 266.9 519.1 288.7 Z" fill="none" stroke="#457b9d" stroke-width="1.4"/><circle cx="500.0" cy="177.5" r="2.8" fill="#457b9d"/><circle cx="500.0" cy="222.9" r="3.7" fill="#457b9d"/><circle cx="500.0" cy="248.9" r="4.6" fill="#457b9d"/><line x1="468.1" y1="290.2" x2="442.3" y2="120.4" stroke="#457b9d" stroke-width="0.8" opacity="0.7"/></g><g transform="rotate(157.50 500 500)"><path d="M 468.1 290.2 Q 438.0 231.1 500.0 158.1 Q 566.3 212.2 531.9 290.2 Z" fill="none" stroke="#1d3557" stroke-width="2.0"/><path d="M 480.9 288.7 Q 470.4 266.9 500.0 242.3 Q 529.6 266.9 519.1 288.7 Z" fill="none" stroke="#457b9d" stroke-width="1.4"/><circle cx="500.0" cy="177.5" r="2.8" fill="#457b9d"/><circle cx="500.0" cy="222.9" r="3.7" fill="#457b9d"/><circle cx="500.0" cy="248.9" r="4.6" fill="#457b9d"/><line x1="468.1" y1="290.2" x2="442.3" y2="120.4" stroke="#457b9d" stroke-width="0.8" opacity="0.7"/></g><g transform="rotate(180.00 500 500)"><path d="M 468.1 290.2 Q 438.0 231.1 500.0 158.1 Q 566.3 212.2 531.9 290.2 Z" fill="none" stroke="#1d3557" stroke-width="2.0"/><path d="M 480.9 288.7 Q 470.4 266.9 500.0 242.3 Q 529.6 266.9 519.1 288.7 Z" fill="none" stroke="#457b9d" stroke-width="1.4"/><circle cx="500.0" cy="177.5" r="2.8" fill="#457b9d"/><circle cx="500.0" cy="222.9" r="3.7" fill="#457b9d"/><circle cx="500.0" cy="248.9" r="4.6" fill="#457b9d"/><line x1="468.1" y1="290.2" x2="442.3" y2="120.4" stroke="#457b9d" stroke-width="0.8" opacity="0.7"/></g><g transform="rotate(202.50 500 500)"><path d="M 468.1 290.2 Q 438.0 231.1 500.0 158.1 Q 566.3 212.2 531.9 290.2 Z" fill="none" stroke="#1d3557" stroke-width="2.0"/><path d="M 480.9 288.7 Q 470.4 266.9 500.0 242.3 Q 529.6 266.9 519.1 288.7 Z" fill="none" stroke="#457b9d" stroke-width="1.4"/><circle cx="500.0" cy="177.5" r="2.8" fill="#457b9d"/><circle cx="500.0" cy="222.9" r="3.7" fill="#457b9d"/><circle cx="500.0" cy="248.9" r="4.6" fill="#457b9d"/><line x1="468.1" y1="290.2" x2="442.3" y2="120.4" stroke="#457b9d" stroke-width="0.8" opacity="0.7"/></g><g transform="rotate(225.00 500 500)"><path d="M 468.1 290.2 Q 438.0 231.1 500.0 158.1 Q 566.3 212.2 531.9 290.2 Z" fill="none" stroke="#1d3557" stroke-width="2.0"/><path d="M 480.9 288.7 Q 470.4 266.9 500.0 242.3 Q 529.6 266.9 519.1 288.7 Z" fill="none" stroke="#457b9d" stroke-width="1.4"/><circle cx="500.0" cy="177.5" r="2.8" fill="#457b9d"/><circle cx="500.0" cy="222.9" r="3.7" fill="#457b9d"/><circle cx="500.0" cy="248.9" r="4.6" fill="#457b9d"/><line x1="468.1" y1="290.2" x2="442.3" y2="120.4" stroke="#457b9d" stroke-width="0.8" opacity="0.7"/></g><g transform="rotate(247.50 500 500)"><path d="M 468.1 290.2 Q 438.0 231.1 500.0 158.1 Q 566.3 212.2 531.9 290.2 Z" fill="none" stroke="#1d3557" stroke-width="2.0"/><path d="M 480.9 288.7 Q 470.4 266.9 500.0 242.3 Q 529.6 266.9 519.1 288.7 Z" fill="none" stroke="#457b9d" stroke-width="1.4"/><circle cx="500.0" cy="177.5" r="2.8" fill="#457b9d"/><circle cx="500.0" cy="222.9" r="3.7" fill="#457b9d"/><circle cx="500.0" cy="248.9" r="4.6" fill="#457b9d"/><line x1="468.1" y1="290.2" x2="442.3" y2="120.4" stroke="#457b9d" stroke-width="0.8" opacity="0.7"/></g><g transform="rotate(270.00 500 500)"><path d="M 468.1 290.2 Q 438.0 231.1 500.0 158.1 Q 566.3 212.2 531.9 290.2 Z" fill="none" stroke="#1d3557" stroke-width="2.0"/><path d="M 480.9 288.7 Q 470.4 266.9 500.0 242.3 Q 529.6 266.9 519.1 288.7 Z" fill="none" stroke="#457b9d" stroke-width="1.4"/><circle cx="500.0" cy="177.5" r="2.8" fill="#457b9d"/><circle cx="500.0" cy="222.9" r="3.7" fill="#457b9d"/><circle cx="500.0" cy="248.9" r="4.6" fill="#457b9d"/><line x1="468.1" y1="290.2" x2="442.3" y2="120.4" stroke="#457b9d" stroke-width="0.8" opacity="0.7"/></g><g transform="rotate(292.50 500 500)"><path d="M 468.1 290.2 Q 438.0 231.1 500.0 158.1 Q 566.3 212.2 531.9 290.2 Z" fill="none" stroke="#1d3557" stroke-width="2.0"/><path d="M 480.9 288.7 Q 470.4 266.9 500.0 242.3 Q 529.6 266.9 519.1 288.7 Z" fill="none" stroke="#457b9d" stroke-width="1.4"/><circle cx="500.0" cy="177.5" r="2.8" fill="#457b9d"/><circle cx="500.0" cy="222.9" r="3.7" fill="#457b9d"/><circle cx="500.0" cy="248.9" r="4.6" fill="#457b9d"/><line x1="468.1" y1="290.2" x2="442.3" y2="120.4" stroke="#457b9d" stroke-width="0.8" opacity="0.7"/></g><g transform="rotate(315.00 500 500)"><path d="M 468.1 290.2 Q 438.0 231.1 500.0 158.1 Q 566.3 212.2 531.9 290.2 Z" fill="none" stroke="#1d3557" stroke-width="2.0"/><path d="M 480.9 288.7 Q 470.4 266.9 500.0 242.3 Q 529.6 266.9 519.1 288.7 Z" fill="none" stroke="#457b9d" stroke-width="1.4"/><circle cx="500.0" cy="177.5" r="2.8" fill="#457b9d"/><circle cx="500.0" cy="222.9" r="3.7" fill="#457b9d"/><circle cx="500.0" cy="248.9" r="4.6" fill="#457b9d"/><line x1="468.1" y1="290.2" x2="442.3" y2="120.4" stroke="#457b9d" stroke-width="0.8" opacity="0.7"/></g><g transform="rotate(337.50 500 500)"><path d="M 468.1 290.2 Q 438.0 231.1 500.0 158.1 Q 566.3 212.2 531.9 290.2 Z" fill="none" stroke="#1d3557" stroke-width="2.0"/><path d="M 480.9 288.7 Q 470.4 266.9 500.0 242.3 Q 529.6 266.9 519.1 288.7 Z" fill="none" stroke="#457b9d" stroke-width="1.4"/><circle cx="500.0" cy="177.5" r="2.8" fill="#457b9d"/><circle cx="500.0" cy="222.9" r="3.7" fill="#457b9d"/><circle cx="500.0" cy="248.9" r="4.6" fill="#457b9d"/><line x1="468.1" y1="290.2" x2="442.3" y2="120.4" stroke="#457b9d" stroke-width="0.8" opacity="0.7"/></g><g transform="rotate(0.00 500 500)"><path d="M 454.4 165.8 Q 426.1 141.6 500.0 77.0 Q 579.9 112.4 545.6 165.8 Z" fill="none" stroke="#1d3557" stroke-width="2.0"/><path d="M 479.3 163.4 Q 469.4 145.5 500.0 125.6 Q 530.6 145.5 520.7 163.4 Z" fill="none" stroke="#e63946" stroke-width="1.4"/><circle cx="500.0" cy="119.9" r="3.7" fill="#e63946"/><circle cx="500.0" cy="102.7" r="2.5" fill="#e63946"/><line x1="454.4" y1="165.8" x2="435.1" y2="24.4" stroke="#e63946" stroke-width="0.8" opacity="0.7"/></g><g transform="rotate(22.50 500 500)"><path d="M 454.4 165.8 Q 426.1 141.6 500.0 77.0 Q 579.9 112.4 545.6 165.8 Z" fill="none" stroke="#1d3557" stroke-width="2.0"/><path d="M 479.3 163.4 Q 469.4 145.5 500.0 125.6 Q 530.6 145.5 520.7 163.4 Z" fill="none" stroke="#e63946" stroke-width="1.4"/><circle cx="500.0" cy="119.9" r="3.7" fill="#e63946"/><circle cx="500.0" cy="102.7" r="2.5" fill="#e63946"/><line x1="454.4" y1="165.8" x2="435.1" y2="24.4" stroke="#e63946" stroke-width="0.8" opacity="0.7"/></g><g transform="rotate(45.00 500 500)"><path d="M 454.4 165.8 Q 426.1 141.6 500.0 77.0 Q 579.9 112.4 545.6 165.8 Z" fill="none" stroke="#1d3557" stroke-width="2.0"/><path d="M 479.3 163.4 Q 469.4 145.5 500.0 125.6 Q 530.6 145.5 520.7 163.4 Z" fill="none" stroke="#e63946" stroke-width="1.4"/><circle cx="500.0" cy="119.9" r="3.7" fill="#e63946"/><circle cx="500.0" cy="102.7" r="2.5" fill="#e63946"/><line x1="454.4" y1="165.8" x2="435.1" y2="24.4" stroke="#e63946" stroke-width="0.8" opacity="0.7"/></g><g transform="rotate(67.50 500 500)"><path d="M 454.4 165.8 Q 426.1 141.6 500.0 77.0 Q 579.9 112.4 545.6 165.8 Z" fill="none" stroke="#1d3557" stroke-width="2.0"/><path d="M 479.3 163.4 Q 469.4 145.5 500.0 125.6 Q 530.6 145.5 520.7 163.4 Z" fill="none" stroke="#e63946" stroke-width="1.4"/><circle cx="500.0" cy="119.9" r="3.7" fill="#e63946"/><circle cx="500.0" cy="102.7" r="2.5" fill="#e63946"/><line x1="454.4" y1="165.8" x2="435.1" y2="24.4" stroke="#e63946" stroke-width="0.8" opacity="0.7"/></g><g transform="rotate(90.00 500 500)"><path d="M 454.4 165.8 Q 426.1 141.6 500.0 77.0 Q 579.9 112.4 545.6 165.8 Z" fill="none" stroke="#1d3557" stroke-width="2.0"/><path d="M 479.3 163.4 Q 469.4 145.5 500.0 125.6 Q 530.6 145.5 520.7 163.4 Z" fill="none" stroke="#e63946" stroke-width="1.4"/><circle cx="500.0" cy="119.9" r="3.7" fill="#e63946"/><circle cx="500.0" cy="102.7" r="2.5" fill="#e63946"/><line x1="454.4" y1="165.8" x2="435.1" y2="24.4" stroke="#e63946" stroke-width="0.8" opacity="0.7"/></g><g transform="rotate(112.50 500 500)"><path d="M 454.4 165.8 Q 426.1 141.6 500.0 77.0 Q 579.9 112.4 545.6 165.8 Z" fill="none" stroke="#1d3557" stroke-width="2.0"/><path d="M 479.3 163.4 Q 469.4 145.5 500.0 125.6 Q 530.6 145.5 520.7 163.4 Z" fill="none" stroke="#e63946" stroke-width="1.4"/><circle cx="500.0" cy="119.9" r="3.7" fill="#e63946"/><circle cx="500.0" cy="102.7" r="2.5" fill="#e63946"/><line x1="454.4" y1="165.8" x2="435.1" y2="24.4" stroke="#e63946" stroke-width="0.8" opacity="0.7"/></g><g transform="rotate(135.00 500 500)"><path d="M 454.4 165.8 Q 426.1 141.6 500.0 77.0 Q 579.9 112.4 545.6 165.8 Z" fill="none" stroke="#1d3557" stroke-width="2.0"/><path d="M 479.3 163.4 Q 469.4 145.5 500.0 125.6 Q 530.6 145.5 520.7 163.4 Z" fill="none" stroke="#e63946" stroke-width="1.4"/><circle cx="500.0" cy="119.9" r="3.7" fill="#e63946"/><circle cx="500.0" cy="102.7" r="2.5" fill="#e63946"/><line x1="454.4" y1="165.8" x2="435.1" y2="24.4" stroke="#e63946" stroke-width="0.8" opacity="0.7"/></g><g transform="rotate(157.50 500 500)"><path d="M 454.4 165.8 Q 426.1 141.6 500.0 77.0 Q 579.9 112.4 545.6 165.8 Z" fill="none" stroke="#1d3557" stroke-width="2.0"/><path d="M 479.3 163.4 Q 469.4 145.5 500.0 125.6 Q 530.6 145.5 520.7 163.4 Z" fill="none" stroke="#e63946" stroke-width="1.4"/><circle cx="500.0" cy="119.9" r="3.7" fill="#e63946"/><circle cx="500.0" cy="102.7" r="2.5" fill="#e63946"/><line x1="454.4" y1="165.8" x2="435.1" y2="24.4" stroke="#e63946" stroke-width="0.8" opacity="0.7"/></g><g transform="rotate(180.00 500 500)"><path d="M 454.4 165.8 Q 426.1 141.6 500.0 77.0 Q 579.9 112.4 545.6 165.8 Z" fill="none" stroke="#1d3557" stroke-width="2.0"/><path d="M 479.3 163.4 Q 469.4 145.5 500.0 125.6 Q 530.6 145.5 520.7 163.4 Z" fill="none" stroke="#e63946" stroke-width="1.4"/><circle cx="500.0" cy="119.9" r="3.7" fill="#e63946"/><circle cx="500.0" cy="102.7" r="2.5" fill="#e63946"/><line x1="454.4" y1="165.8" x2="435.1" y2="24.4" stroke="#e63946" stroke-width="0.8" opacity="0.7"/></g><g transform="rotate(202.50 500 500)"><path d="M 454.4 165.8 Q 426.1 141.6 500.0 77.0 Q 579.9 112.4 545.6 165.8 Z" fill="none" stroke="#1d3557" stroke-width="2.0"/><path d="M 479.3 163.4 Q 469.4 145.5 500.0 125.6 Q 530.6 145.5 520.7 163.4 Z" fill="none" stroke="#e63946" stroke-width="1.4"/><circle cx="500.0" cy="119.9" r="3.7" fill="#e63946"/><circle cx="500.0" cy="102.7" r="2.5" fill="#e63946"/><line x1="454.4" y1="165.8" x2="435.1" y2="24.4" stroke="#e63946" stroke-width="0.8" opacity="0.7"/></g><g transform="rotate(225.00 500 500)"><path d="M 454.4 165.8 Q 426.1 141.6 500.0 77.0 Q 579.9 112.4 545.6 165.8 Z" fill="none" stroke="#1d3557" stroke-width="2.0"/><path d="M 479.3 163.4 Q 469.4 145.5 500.0 125.6 Q 530.6 145.5 520.7 163.4 Z" fill="none" stroke="#e63946" stroke-width="1.4"/><circle cx="500.0" cy="119.9" r="3.7" fill="#e63946"/><circle cx="500.0" cy="102.7" r="2.5" fill="#e63946"/><line x1="454.4" y1="165.8" x2="435.1" y2="24.4" stroke="#e63946" stroke-width="0.8" opacity="0.7"/></g><g transform="rotate(247.50 500 500)"><path d="M 454.4 165.8 Q 426.1 141.6 500.0 77.0 Q 579.9 112.4 545.6 165.8 Z" fill="none" stroke="#1d3557" stroke-width="2.0"/><path d="M 479.3 163.4 Q 469.4 145.5 500.0 125.6 Q 530.6 145.5 520.7 163.4 Z" fill="none" stroke="#e63946" stroke-width="1.4"/><circle cx="500.0" cy="119.9" r="3.7" fill="#e63946"/><circle cx="500.0" cy="102.7" r="2.5" fill="#e63946"/><line x1="454.4" y1="165.8" x2="435.1" y2="24.4" stroke="#e63946" stroke-width="0.8" opacity="0.7"/></g><g transform="rotate(270.00 500 500)"><path d="M 454.4 165.8 Q 426.1 141.6 500.0 77.0 Q 579.9 112.4 545.6 165.8 Z" fill="none" stroke="#1d3557" stroke-width="2.0"/><path d="M 479.3 163.4 Q 469.4 145.5 500.0 125.6 Q 530.6 145.5 520.7 163.4 Z" fill="none" stroke="#e63946" stroke-width="1.4"/><circle cx="500.0" cy="119.9" r="3.7" fill="#e63946"/><circle cx="500.0" cy="102.7" r="2.5" fill="#e63946"/><line x1="454.4" y1="165.8" x2="435.1" y2="24.4" stroke="#e63946" stroke-width="0.8" opacity="0.7"/></g><g transform="rotate(292.50 500 500)"><path d="M 454.4 165.8 Q 426.1 141.6 500.0 77.0 Q 579.9 112.4 545.6 165.8 Z" fill="none" stroke="#1d3557" stroke-width="2.0"/><path d="M 479.3 163.4 Q 469.4 145.5 500.0 125.6 Q 530.6 145.5 520.7 163.4 Z" fill="none" stroke="#e63946" stroke-width="1.4"/><circle cx="500.0" cy="119.9" r="3.7" fill="#e63946"/><circle cx="500.0" cy="102.7" r="2.5" fill="#e63946"/><line x1="454.4" y1="165.8" x2="435.1" y2="24.4" stroke="#e63946" stroke-width="0.8" opacity="0.7"/></g><g transform="rotate(315.00 500 500)"><path d="M 454.4 165.8 Q 426.1 141.6 500.0 77.0 Q 579.9 112.4 545.6 165.8 Z" fill="none" stroke="#1d3557" stroke-width="2.0"/><path d="M 479.3 163.4 Q 469.4 145.5 500.0 125.6 Q 530.6 145.5 520.7 163.4 Z" fill="none" stroke="#e63946" stroke-width="1.4"/><circle cx="500.0" cy="119.9" r="3.7" fill="#e63946"/><circle cx="500.0" cy="102.7" r="2.5" fill="#e63946"/><line x1="454.4" y1="165.8" x2="435.1" y2="24.4" stroke="#e63946" stroke-width="0.8" opacity="0.7"/></g><g transform="rotate(337.50 500 500)"><path d="M 454.4 165.8 Q 426.1 141.6 500.0 77.0 Q 579.9 112.4 545.6 165.8 Z" fill="none" stroke="#1d3557" stroke-width="2.0"/><path d="M 479.3 163.4 Q 469.4 145.5 500.0 125.6 Q 530.6 145.5 520.7 163.4 Z" fill="none" stroke="#e63946" stroke-width="1.4"/><circle cx="500.0" cy="119.9" r="3.7" fill="#e63946"/><circle cx="500.0" cy="102.7" r="2.5" fill="#e63946"/><line x1="454.4" y1="165.8" x2="435.1" y2="24.4" stroke="#e63946" stroke-width="0.8" opacity="0.7"/></g><circle cx="500" cy="500" r="55.7" fill="#1d3557"/><circle cx="500" cy="500" r="34.6" fill="#ffffff"/><path d="M 500 474.9 L 522.3 517.8 L 477.7 517.8 Z" fill="#e63946"/><!-- VectorForge Daily | machine-generated asset | (c) operator, all rights reserved --></svg>