<?xml version="1.0" encoding="UTF-8"?>
<svg xmlns="http://www.w3.org/2000/svg" width="1000" height="1000" viewBox="0 0 1000 1000"><rect width="1000" height="1000" fill="#ffffff"/><g transform="rotate(0.00 500 500)"><path d="M 431.0 202.8 Q 373.2 144.2 500.0 49.8 Q 626.8 144.2 569.0 202.8 Z" fill="#1d3557"/><path d="M 463.8 200.5 Q 442.5 184.2 500.0 159.6 Q 557.5 184.2 536.2 200.5 Z" fill="#e63946"/><path d="M 868.6 514.1 A 368.9 368.9 0 0 1 770.6 750.7" fill="none" stroke="#457b9d" stroke-width="6.0"/></g><g transform="rotate(45.00 500 500)"><path d="M 431.0 202.8 Q 373.2 144.2 500.0 49.8 Q 626.8 144.2 569.0 202.8 Z" fill="#1d3557"/><path d="M 463.8 200.5 Q 442.5 184.2 500.0 159.6 Q 557.5 184.2 536.2 200.5 Z" fill="#e63946"/><path d="M 868.6 514.1 A 368.9 368.9 0 0 1 770.6 750.7" fill="none" stroke="#457b9d" stroke-width="6.0"/></g><g transform="rotate(90.00 500 500)"><path d="M 431.0 202.8 Q 373.2 144.2 500.0 49.8 Q 626.8 144.2 569.0 202.8 Z" fill="#1d3557"/><path d="M 463.8 200.5 Q 442.5 184.2 500.0 159.6 Q 557.5 184.2 536.2 200.5 Z" fill="#e63946"/><path d="M 868.6 514.1 A 368.9 368.9 0 0 1 770.6 750.7" fill="none" stroke="#457b9d" stroke-width="6.0"/></g><g transform="rotate(135.00 500 500)"><path d="M 431.0 202.8 Q 373.2 144.2 500.0 49.8 Q 626.8 144.2 569.0 202.8 Z" fill="#1d3557"/><path d="M 463.8 200.5 Q 442.5 184.2 500.0 159.6 Q 557.5 184.2 536.2 200.5 Z" fill="#e63946"/><path d="M 868.6 514.1 A 368.9 368.9 0 0 1 770.6 750.7" fill="none" stroke="#457b9d" stroke-width="6.0"/></g><g transform="rotate(180.00 500 500)"><path d="M 431.0 202.8 Q 373.2 144.2 500.0 49.8 Q 626.8 144.2 569.0 202.8 Z" fill="#1d3557"/><path d="M 463.8 200.5 Q 442.5 184.2 500.0 159.6 Q 557.5 184.2 536.2 200.5 Z" fill="#e63946"/><path d="M 868.6 514.1 A 368.9 368.9 0 0 1 770.6 750.7" fill="none" stroke="#457b9d" stroke-width="6.0"/></g><g transform="rotate(225.00 500 500)"><path d="M 431.0 202.8 Q 373.2 144.2 500.0 49.8 Q 626.8 144.2 569.0 202.8 Z" fill="#1d3557"/><path d="M 463.8 200.5 Q 442.5 184.2 500.0 159.6 Q 557.5 184.2 536.2 200.5 Z" fill="#e63946"/><path d="M 868.6 514.1 A 368.9 368.9 0 0 1 770.6 750.7" fill="none" stroke="#457b9d" stroke-width="6.0"/></g><g transform="rotate(270.00 500 500)"><path d="M 431.0 202.8 Q 373.2 144.2 500.0 49.8 Q 626.8 144.2 569.0 202.8 Z" fill="#1d3557"/><path d="M 463.8 200.5 Q 442.5 184.2 500.0 159.6 Q 557.5 184.2 536.2 200.5 Z" fill="#e63946"/><path d="M 868.6 514.1 A 368.9 368.9 0 0 1 770.6 750.7" fill="none" stroke="#457b9d" stroke-width="6.0"/></g><g transform="rotate(315.00 500 500)"><path d="M 431.0 202.8 Q 373.2 144.2 500.0 49.8 Q 626.8 144.2 569.0 202.8 Z" fill="#1d3557"/><path d="M 463.8 200.5 Q 442.5 184.2 500.0 159.6 Q 557.5 184.2 536.2 200.5 Z" fill="#e63946"/><path d="M 868.6 514.1 A 368.9 368.9 0 0 1 770.6 750.7" fill="none" stroke="#457b9d" stroke-width="6.0"/></g><g transform="rotate(0.00 500 500)"><path d="M 460.4 331.5 Q 418.0 272.7 500.0 189.8 Q 582.0 272.7 539.6 331.5 Z" fill="#1d3557"/><path d="M 480.2 331.4 Q 467.0 313.4 500.0 290.8 Q 533.0 313.4 519.8 331.4 Z" fill="#e63946"/><path d="M 737.8 509.5 A 238.0 238.0 0 0 1 674.9 661.4" fill="none" stroke="#457b9d" stroke-width="6.0"/></g><g transform="rotate(45.00 500 500)"><path d="M 460.4 331.5 Q 418.0 272.7 500.0 189.8 Q 582.0 272.7 539.6 331.5 Z" fill="#1d3557"/><path d="M 480.2 331.4 Q 467.0 313.4 500.0 290.8 Q 533.0 313.4 519.8 331.4 Z" fill="#e63946"/><path d="M 737.8 509.5 A 238.0 238.0 0 0 1 674.9 661.4" fill="none" stroke="#457b9d" stroke-width="6.0"/></g><g transform="rotate(90.00 500 500)"><path d="M 460.4 331.5 Q 418.0 272.7 500.0 189.8 Q 582.0 272.7 539.6 331.5 Z" fill="#1d3557"/><path d="M 480.2 331.4 Q 467.0 313.4 500.0 290.8 Q 533.0 313.4 519.8 331.4 Z" fill="#e63946"/><path d="M 737.8 509.5 A 238.0 238.0 0 0 1 674.9 661.4" fill="none" stroke="#457b9d" stroke-width="6.0"/></g><g transform="rotate(135.00 500 500)"><path d="M 460.4 331.5 Q 418.0 272.7 500.0 189.8 Q 582.0 272.7 539.6 331.5 Z" fill="#1d3557"/><path d="M 480.2 331.4 Q 467.0 313.4 500.0 290.8 Q 533.0 313.4 519.8 331.4 Z" fill="#e63946"/><path d="M 737.8 509.5 A 238.0 238.0 0 0 1 674.9 661.4" fill="none" stroke="#457b9d" stroke-width="6.0"/></g><g transform="rotate(180.00 500 500)"><path d="M 460.4 331.5 Q 418.0 272.7 500.0 189.8 Q 582.0 272.7 539.6 331.5 Z" fill="#1d3557"/><path d="M 480.2 331.4 Q 467.0 313.4 500.0 290.8 Q 533.0 313.4 519.8 331.4 Z" fill="#e63946"/><path d="M 737.8 509.5 A 238.0 238.0 0 0 1 674.9 661.4" fill="none" stroke="#457b9d" stroke-width="6.0"/></g><g transform="rotate(225.00 500 500)"><path d="M 460.4 331.5 Q 418.0 272.7 500.0 189.8 Q 582.0 272.7 539.6 331.5 Z" fill="#1d3557"/><path d="M 480.2 331.4 Q 467.0 313.4 500.0 290.8 Q 533.0 313.4 519.8 331.4 Z" fill="#e63946"/><path d="M 737.8 509.5 A 238.0 238.0 0 0 1 674.9 661.4" fill="none" stroke="#457b9d" stroke-width="6.0"/></g><g transform="rotate(270.00 500 500)"><path d="M 460.4 331.5 Q 418.0 272.7 500.0 189.8 Q 582.0 272.7 539.6 331.5 Z" fill="#1d3557"/><path d="M 480.2 331.4 Q 467.0 313.4 500.0 290.8 Q 533.0 313.4 519.8 331.4 Z" fill="#e63946"/><path d="M 737.8 509.5 A 238.0 238.0 0 0 1 674.9 661.4" fill="none" stroke="#457b9d" stroke-width="6.0"/></g><g transform="rotate(315.00 500 500)"><path d="M 460.4 331.5 Q 418.0 272.7 500.0 189.8 Q 582.0 272.7 539.6 331.5 Z" fill="#1d3557"/><path d="M 480.2 331.4 Q 467.0 313.4 500.0 290.8 Q 533.0 313.4 519.8 331.4 Z" fill="#e63946"/><path d="M 737.8 509.5 A 238.0 238.0 0 0 1 674.9 661.4" fill="none" stroke="#457b9d" stroke-width="6.0"/></g><g transform="rotate(0.00 500 500)"><path d="M 500.0 500.0 Q 461.6 410.8 500.0 305.8 Q 538.4 410.8 500.0 500.0 Z" fill="#1d3557"/><path d="M 500.0 500.0 Q 492.5 465.8 500.0 429.9 Q 507.5 465.8 500.0 500.0 Z" fill="#e63946"/><path d="M 599.9 503.7 A 100.0 100.0 0 0 1 573.3 568.0" fill="none" stroke="#457b9d" stroke-width="6.0"/></g><g transform="rotate(45.00 500 500)"><path d="M 500.0 500.0 Q 461.6 410.8 500.0 305.8 Q 538.4 410.8 500.0 500.0 Z" fill="#1d3557"/><path d="M 500.0 500.0 Q 492.5 465.8 500.0 429.9 Q 507.5 465.8 500.0 500.0 Z" fill="#e63946"/><path d="M 599.9 503.7 A 100.0 100.0 0 0 1 573.3 568.0" fill="none" stroke="#457b9d" stroke-width="6.0"/></g><g transform="rotate(90.00 500 500)"><path d="M 500.0 500.0 Q 461.6 410.8 500.0 305.8 Q 538.4 410.8 500.0 500.0 Z" fill="#1d3557"/><path d="M 500.0 500.0 Q 492.5 465.8 500.0 429.9 Q 507.5 465.8 500.0 500.0 Z" fill="#e63946"/><path d="M 599.9 503.7 A 100.0 100.0 0 0 1 573.3 568.0" fill="none" stroke="#457b9d" stroke-width="6.0"/></g><g transform="rotate(135.00 500 500)"><path d="M 500.0 500.0 Q 461.6 410.8 500.0 305.8 Q 538.4 410.8 500.0 500.0 Z" fill="#1d3557"/><path d="M 500.0 500.0 Q 492.5 465.8 500.0 429.9 Q 507.5 465.8 500.0 500.0 Z" fill="#e63946"/><path d="M 599.9 503.7 A 100.0 100.0 0 0 1 573.3 568.0" fill="none" stroke="#457b9d" stroke-width="6.0"/></g><g transform="rotate(180.00 500 500)"><path d="M 500.0 500.0 Q 461.6 410.8 500.0 305.8 Q 538.4 410.8 500.0 500.0 Z" fill="#1d3557"/><path d="M 500.0 500.0 Q 492.5 465.8 500.0 429.9 Q 507.5 465.8 500.0 500.0 Z" fill="#e63946"/><path d="M 599.9 503.7 A 100.0 100.0 0 0 1 573.3 568.0" fill="none" stroke="#457b9d" stroke-width="6.0"/></g><g transform="rotate(225.00 500 500)"><path d="M 500.0 500.0 Q 461.6 410.8 500.0 305.8 Q 538.4 410.8 500.0 500.0 Z" fill="#1d3557"/><path d="M 500.0 500.0 Q 492.5 465.8 500.0 429.9 Q 507.5 465.8 500.0 500.0 Z" fill="#e63946"/><path d="M 599.9 503.7 A 100.0 100.0 0 0 1 573.3 568.0" fill="none" stroke="#457b9d" stroke-width="6.0"/></g><g transform="rotate(270.00 500 500)"><path d="M 500.0 500.0 Q 461.6 410.8 500.0 305.8 Q 538.4 410.8 500.0 500.0 Z" fill="#1d3557"/><path d="M 500.0 500.0 Q 492.5 465.8 500.0 429.9 Q 507.5 465.8 500.0 500.0 Z" fill="#e63946"/><path d="M 599.9 503.7 A 100.0 100.0 0 0 1 573.3 568.0" fill="none" stroke="#457b9d" stroke-width="6.0"/></g><g transform="rotate(315.00 500 500)"><path d="M 500.0 500.0 Q 461.6 410.8 500.0 305.8 Q 538.4 410.8 500.0 500.0 Z" fill="#1d3557"/><path d="M 500.0 500.0 Q 492.5 465.8 500.0 429.9 Q 507.5 465.8 500.0 500.0 Z" fill="#e63946"/><path d="M 599.9 503.7 A 100.0 100.0 0 0 1 573.3 568.0" fill="none" stroke="#457b9d" stroke-width="6.0"/></g><circle cx="500" cy="500" r="61.9" fill="#1d3557"/><circle cx="500" cy="500" r="23.8" fill="#ffffff"/><!-- VectorForge Daily | machine-generated asset | (c) operator, all rights reserved --></svg>